<?xml version="1.0" encoding="UTF-8" standalone="no"?>
<svg xmlns="http://www.w3.org/2000/svg" width="800" height="400">
<path d="m 0,330.549 c 0.381497,0 0.762995,0.704 1.14449,0.703 0.3815,-0 0.763,-0.709 1.14449,-0.706 0.3815,0 0.763,0.714 1.1445,0.709 0.38149,-0 0.76299,-0.719 1.14449,-0.712 0.3815,0 0.76299,0.724 1.14449,0.715 0.3815,-0 0.763,-0.729 1.14449,-0.719 0.3815,0.01 0.763,0.735 1.14449,0.723 0.3815,-0.01 0.763,-0.74 1.1445,-0.726 0.38149,0.01 0.76299,0.745 1.14446,0.73 0.3815,-0.02 0.763,-0.752 1.1445,-0.734 0.3815,0.02 0.763,0.757 1.1445,0.738 0.3815,-0.02 0.763,-0.764 1.1445,-0.743 0.3815,0.02 0.763,0.77 1.1445,0.747 0.3815,-0.02 0.763,-0.776 1.1445,-0.751 0.3815,0.02 0.763,0.783 1.1445,0.756 0.3815,-0.03 0.763,-0.79 1.1445,-0.761 0.3815,0.03 0.763,0.797 1.1445,0.766 0.3815,-0.03 0.763,-0.805 1.1445,-0.772 0.3815,0.03 0.763,0.813 1.1445,0.778 0.3814,-0.04 0.7629,-0.821 1.1444,-0.783 0.3815,0.04 0.763,0.828 1.1445,0.789 0.3815,-0.04 0.763,-0.837 1.1445,-0.796 0.3815,0.04 0.763,0.846 1.1445,0.802 0.3815,-0.04 0.763,-0.854 1.1445,-0.808 0.3815,0.05 0.763,0.864 1.1445,0.815 0.3815,-0.05 0.763,-0.873 1.1445,-0.822 0.3815,0.05 0.763,0.883 1.1445,0.829 0.3815,-0.05 0.763,-0.893 1.1445,-0.837 0.3815,0.06 0.763,0.904 1.1445,0.845 0.3815,-0.06 0.763,-0.914 1.1445,-0.853 0.3815,0.06 0.763,0.925 1.1445,0.862 0.3815,-0.06 0.763,-0.937 1.1444,-0.871 0.3815,0.07 0.763,0.949 1.1445,0.88 0.3815,-0.07 0.763,-0.961 1.1445,-0.889 0.3815,0.07 0.763,0.973 1.1445,0.898 0.3815,-0.07 0.763,-0.986 1.1445,-0.908 0.3815,0.08 0.763,1 1.1445,0.919 0.3815,-0.08 0.763,-1.014 1.1445,-0.93 0.3815,0.08 0.763,1.029 1.1445,0.941 0.3815,-0.09 0.763,-1.044 1.1445,-0.952 0.3815,0.09 0.763,1.059 1.1445,0.964 0.3815,-0.09 0.763,-1.075 1.1445,-0.977 0.3815,0.1 0.763,1.092 1.1445,0.99 0.3815,-0.102 0.763,-1.11 1.1445,-1.003 0.3815,0.106 0.7629,1.127 1.1444,1.017 0.3815,-0.11 0.763,-1.146 1.1445,-1.032 0.3815,0.114 0.763,1.166 1.1445,1.047 0.3815,-0.119 0.763,-1.186 1.1445,-1.063 0.3815,0.123 0.763,1.208 1.1445,1.08 0.3815,-0.128 0.763,-1.23 1.1445,-1.097 0.3815,0.133 0.763,1.252 1.1445,1.115 0.3815,-0.138 0.763,-1.277 1.1445,-1.134 0.3815,0.143 0.763,1.302 1.1445,1.153 0.3815,-0.148 0.763,-1.327 1.1445,-1.173 0.3815,0.154 0.763,1.355 1.1445,1.195 0.3815,-0.16 0.763,-1.384 1.1445,-1.218 0.3815,0.166 0.763,1.414 1.1445,1.241 0.3814,-0.172 0.7629,-1.445 1.1444,-1.266 0.3815,0.18 0.763,1.479 1.1445,1.292 0.3815,-0.186 0.763,-1.513 1.1445,-1.319 0.3815,0.194 0.763,1.55 1.1445,1.348 0.3815,-0.201 0.763,-1.588 1.1445,-1.378 0.3815,0.209 0.763,1.629 1.1445,1.41 0.3815,-0.218 0.763,-1.672 1.1445,-1.444 0.3815,0.227 0.763,1.717 1.1445,1.48 0.3815,-0.237 0.763,-1.766 1.1445,-1.518 0.3815,0.247 0.763,1.817 1.1445,1.559 0.3815,-0.258 0.763,-1.872 1.1445,-1.602 0.3815,0.269 0.763,1.929 1.1445,1.647 0.3815,-0.282 0.763,-1.991 1.1444,-1.696 0.3815,0.295 0.763,2.057 1.1445,1.748 0.3815,-0.308 0.763,-2.128 1.1445,-1.804 0.3815,0.324 0.763,2.204 1.1445,1.864 0.3815,-0.339 0.763,-2.286 1.1445,-1.929 0.3815,0.357 0.763,2.375 1.1445,1.999 0.3815,-0.376 0.763,-2.47 1.1445,-2.074 0.3815,0.396 0.763,2.574 1.1445,2.156 0.3815,-0.418 0.763,-2.688 1.1445,-2.245 0.3815,0.442 0.763,2.811 1.1445,2.343 0.3815,-0.468 0.763,-2.948 1.1445,-2.451 0.3815,0.497 0.763,3.099 1.1445,2.57 0.3815,-0.53 0.763,-3.267 1.1445,-2.701 0.3815,0.565 0.7629,3.452 1.1444,2.847 0.3815,-0.605 0.763,-3.662 1.1445,-3.012 0.3815,0.65 0.763,3.899 1.1445,3.198 0.3815,-0.701 0.763,-4.169 1.1445,-3.41 0.3815,0.76 0.763,4.48 1.1445,3.653 0.3815,-0.827 0.7632,-4.841 1.1442,-3.935 0.382,0.906 0.763,5.266 1.145,4.266 0.381,-0.999 0.763,-5.772 1.144,-4.66 0.382,1.112 0.763,6.388 1.145,5.138 0.381,-1.25 0.763,-7.151 1.144,-5.728 0.382,1.423 0.763,8.122 1.145,6.476 0.381,-1.647 0.763,-9.401 1.144,-7.454 0.382,1.946 0.763,11.158 1.145,8.788 0.381,-2.37 0.763,-13.729 1.144,-10.716 0.382,3.013 0.763,17.853 1.145,13.746 0.381,-4.107 0.763,-25.584 1.144,-19.206 0.382,6.378 0.763,45.917 1.145,31.968 0.381,-13.95 0.763,-104.033 1.144,-188.512 0.382,-84.4783 0.763,-125.496 1.145,-114.837 0.381,10.659 0.763,38.128 1.144,32.3903 0.382,-5.7376 0.763,-23.1274 1.145,-19.1792 0.381,3.9481 0.763,16.648 1.144,13.6253 0.382,-3.0227 0.763,-13.0168 1.145,-10.5596 0.381,2.4572 0.763,10.6908 1.144,8.6149 0.382,-2.0759 0.763,-9.0725 1.145,-7.2711 0.381,1.8014 0.763,7.8813 1.144,6.2869 0.382,-1.5945 0.763,-6.9678 1.145,-5.535 0.381,1.4328 0.763,6.2449 1.144,4.9419 0.382,-1.3031 0.763,-5.6588 1.145,-4.4621 0.381,1.1966 0.763,5.1738 1.144,4.0659 0.382,-1.1078 0.763,-4.766 1.145,-3.7334 0.381,1.0326 0.763,4.4184 1.144,3.4503 0.382,-0.968 0.763,-4.1184 1.145,-3.2064 0.381,0.912 0.763,3.8571 1.144,2.9941 0.382,-0.863 0.763,-3.6273 1.145,-2.8076 0.381,0.8197 0.763,3.4238 1.144,2.6425 0.382,-0.7812 0.763,-3.2422 1.145,-2.4954 0.381,0.7469 0.763,3.0794 1.144,2.3635 0.382,-0.7159 0.763,-2.9323 1.145,-2.2444 0.381,0.6879 0.763,2.799 1.144,2.1365 0.382,-0.6625 0.763,-2.6776 1.145,-2.0383 0.381,0.6393 0.763,2.5665 1.144,1.9485 0.382,-0.618 0.763,-2.4646 1.145,-1.8661 0.381,0.5985 0.763,2.3707 1.144,1.7902 0.382,-0.5805 0.763,-2.2839 1.145,-1.7201 0.381,0.5639 0.762,2.2035 1.144,1.6551 0.381,-0.5484 0.763,-2.1288 1.144,-1.5947 0.382,0.5341 0.763,2.0592 1.145,1.5385 0.381,-0.5208 0.763,-1.9942 1.144,-1.486 0.382,0.5083 0.763,1.9334 1.145,1.4368 0.381,-0.4966 0.763,-1.8764 1.144,-1.3907 0.382,0.4857 0.763,1.8229 1.145,1.3475 0.381,-0.4755 0.763,-1.7725 1.144,-1.3068 0.382,0.4658 0.763,1.725 1.145,1.2683 0.381,-0.4566 0.763,-1.6801 1.144,-1.232 0.382,0.4481 0.763,1.6377 1.145,1.1977 0.381,-0.44 0.763,-1.5976 1.144,-1.1652 0.382,0.4323 0.763,1.5595 1.145,1.1344 0.381,-0.4251 0.763,-1.5234 1.144,-1.1051 0.382,0.4182 0.763,1.489 1.145,1.0773 0.381,-0.4117 0.763,-1.4564 1.144,-1.0508 0.382,0.4055 0.763,1.4252 1.145,1.0255 0.381,-0.3996 0.763,-1.3956 1.144,-1.0015 0.382,0.3941 0.763,1.3673 1.145,0.9785 0.381,-0.3887 0.763,-1.3402 1.144,-0.9565 0.382,0.3837 0.763,1.3144 1.145,0.9355 0.381,-0.3789 0.763,-1.2896 1.144,-0.9153 0.382,0.3743 0.763,1.2659 1.145,0.896 0.381,-0.3699 0.763,-1.2432 1.144,-0.8775 0.382,0.3657 0.763,1.2214 1.145,0.8597 0.381,-0.3617 0.763,-1.2005 1.144,-0.8426 0.382,0.3578 0.763,1.1804 1.145,0.8262 0.381,-0.3542 0.763,-1.1611 1.144,-0.8104 0.382,0.3507 0.763,1.1425 1.145,0.7952 0.381,-0.3474 0.763,-1.1247 1.144,-0.7806 0.382,0.3442 0.763,1.1075 1.145,0.7664 0.381,-0.3411 0.763,-1.0909 1.144,-0.7527 0.382,0.3381 0.763,1.0749 1.145,0.7396 0.381,-0.3354 0.763,-1.0596 1.144,-0.7269 0.382,0.3326 0.763,1.0447 1.145,0.7146 0.381,-0.3301 0.763,-1.0304 1.144,-0.7028 0.382,0.3277 0.763,1.0166 1.145,0.6914 0.381,-0.3253 0.763,-1.0033 1.144,-0.6803 0.382,0.323 0.763,0.9904 1.145,0.6695 0.381,-0.3208 0.763,-0.9778 1.144,-0.6591 0.382,0.3188 0.763,0.9658 1.145,0.649 0.381,-0.3168 0.763,-0.9541 1.144,-0.6392 0.382,0.3149 0.763,0.9428 1.145,0.6297 0.381,-0.313 0.763,-0.9319 1.144,-0.6205 0.382,0.3114 0.763,0.9213 1.145,0.6116 0.381,-0.3097 0.763,-0.9111 1.144,-0.6029 0.382,0.3081 0.763,0.9011 1.145,0.5945 0.381,-0.3066 0.763,-0.8916 1.144,-0.5864 0.382,0.3052 0.763,0.8823 1.145,0.5785 0.381,-0.3038 0.763,-0.8733 1.144,-0.5707 0.382,0.3025 0.763,0.8644 1.145,0.5632 0.381,-0.3013 0.763,-0.856 1.144,-0.5559 0.382,0.3001 0.763,0.8477 1.145,0.5488 0.381,-0.299 0.763,-0.8398 1.144,-0.5419 0.382,0.2979 0.763,0.832 1.145,0.5351 0.381,-0.2969 0.763,-0.8245 1.144,-0.5286 0.382,0.296 0.763,0.8173 1.145,0.5222 0.381,-0.2951 0.763,-0.8102 1.144,-0.5159 0.382,0.2942 0.763,0.8033 1.145,0.5098 0.381,-0.2934 0.763,-0.7966 1.144,-0.5039 0.382,0.2927 0.763,0.7902 1.145,0.4982 0.381,-0.2921 0.763,-0.7839 1.144,-0.4926 0.382,0.2914 0.763,0.7779 1.145,0.4871 0.381,-0.2908 0.762,-0.7719 1.144,-0.4817 0.381,0.2902 0.763,0.7662 1.144,0.4764 0.382,-0.2897 0.763,-0.7606 1.145,-0.4713 0.381,0.2893 0.763,0.7552 1.144,0.4663 0.382,-0.2888 0.763,-0.7499 1.145,-0.4614 0.381,0.2885 0.763,0.7449 1.144,0.4567 0.382,-0.2882 0.763,-0.74 1.145,-0.452 0.381,0.2879 0.763,0.7351 1.144,0.4474 0.382,-0.2877 0.763,-0.7305 1.145,-0.443 0.381,0.2875 0.763,0.726 1.144,0.4387 0.382,-0.2874 0.763,-0.7217 1.145,-0.4344 0.381,0.2872 0.763,0.7174 1.144,0.4302 0.382,-0.2871 0.763,-0.7133 1.145,-0.4262 0.381,0.2871 0.763,0.7093 1.144,0.4222 0.382,-0.2871 0.763,-0.7054 1.145,-0.4183 0.381,0.2872 0.763,0.7018 1.144,0.4145 0.382,-0.2872 0.763,-0.6981 1.145,-0.4107 0.381,0.2873 0.763,0.6946 1.144,0.4071 0.382,-0.2876 0.763,-0.6913 1.145,-0.4036 0.381,0.2878 0.763,0.688 1.144,0.4001 0.382,-0.288 0.763,-0.6849 1.145,-0.3966 0.381,0.2882 0.763,0.6818 1.144,0.3932 0.382,-0.2886 0.763,-0.6789 1.145,-0.3899 0.381,0.2889 0.763,0.676 1.144,0.3867 0.382,-0.2894 0.763,-0.6733 1.145,-0.3836 0.381,0.2898 0.763,0.6707 1.144,0.3805 0.382,-0.2903 0.763,-0.6682 1.145,-0.3774 0.381,0.2907 0.763,0.6657 1.144,0.3744 0.382,-0.2913 0.763,-0.6634 1.145,-0.3715 0.381,0.2919 0.763,0.6611 1.144,0.3686 0.382,-0.2925 0.763,-0.659 1.145,-0.3658 0.381,0.2932 0.763,0.657 1.144,0.3631 0.382,-0.2939 0.763,-0.6551 1.145,-0.3604 0.381,0.2946 0.763,0.6532 1.144,0.3577 0.382,-0.2954 0.763,-0.6514 1.145,-0.3551 0.381,0.2963 0.763,0.6497 1.144,0.3526 0.382,-0.2972 0.763,-0.6481 1.145,-0.3501 0.381,0.298 0.763,0.6466 1.144,0.3476 0.382,-0.299 0.763,-0.6452 1.145,-0.3452 0.381,0.3 0.763,0.6439 1.144,0.3428 0.382,-0.301 0.763,-0.6426 1.145,-0.3405 0.381,0.3021 0.763,0.6415 1.144,0.3383 0.382,-0.3033 0.763,-0.6404 1.145,-0.336 0.381,0.3044 0.763,0.6394 1.144,0.3338 0.382,-0.3056 0.763,-0.6386 1.145,-0.3317 0.381,0.3069 0.763,0.6377 1.144,0.3296 0.382,-0.3082 0.763,-0.637 1.145,-0.3275 0.381,0.3095 0.763,0.6364 1.144,0.3254 0.382,-0.3109 0.763,-0.6358 1.145,-0.3234 0.381,0.3124 0.763,0.6353 1.144,0.3214 0.382,-0.3139 0.763,-0.6349 1.145,-0.3195 0.381,0.3155 0.763,0.6347 1.144,0.3176 0.382,-0.317 0.763,-0.6344 1.145,-0.3157 0.381,0.3187 0.763,0.6343 1.144,0.3139 0.382,-0.3204 0.763,-0.6343 1.145,-0.3121 0.381,0.3222 0.763,0.6344 1.144,0.3103 0.382,-0.324 0.763,-0.6344 1.145,-0.3085 0.381,0.3259 0.763,0.6347 1.144,0.3068 0.382,-0.3278 0.763,-0.635 1.145,-0.3052 0.381,0.3299 0.763,0.6355 1.144,0.3036 0.382,-0.3319 0.763,-0.636 1.145,-0.3019 0.381,0.334 0.763,0.6365 1.144,0.3003 0.382,-0.3363 0.763,-0.6372 1.145,-0.2988 0.381,0.3385 0.763,0.638 1.144,0.2972 0.381,-0.3408 0.763,-0.6388 1.144,-0.2956 0.382,0.3431 0.763,0.6398 1.145,0.2941 0.381,-0.3456 0.763,-0.6409 1.144,-0.2927 0.382,0.3482 0.763,0.6421 1.145,0.2913 0.381,-0.3508 0.763,-0.6434 1.144,-0.2899 0.382,0.3536 0.763,0.6448 1.145,0.2885 0.381,-0.3563 0.763,-0.6462 1.144,-0.2871 0.382,0.3592 0.763,0.6478 1.145,0.2857 0.381,-0.3621 0.763,-0.6495 1.144,-0.2844 0.382,0.3652 0.763,0.6514 1.145,0.2831 0.381,-0.3682 0.763,-0.6532 1.144,-0.2818 0.382,0.3715 0.763,0.6553 1.145,0.2806 0.381,-0.3748 0.763,-0.6575 1.144,-0.2793 0.382,0.3782 0.763,0.6598 1.145,0.278 0.381,-0.3817 0.763,-0.6622 1.144,-0.2768 0.382,0.3853 0.763,0.6647 1.145,0.2756 0.381,-0.389 0.763,-0.6674 1.144,-0.2744 0.382,0.3929 0.763,0.6702 1.145,0.2733 0.381,-0.3969 0.763,-0.6732 1.144,-0.2722 0.382,0.401 0.763,0.6763 1.145,0.2711 0.381,-0.4052 0.763,-0.6796 1.144,-0.27 0.382,0.4096 0.763,0.683 1.145,0.2689 0.381,-0.4141 0.763,-0.6865 1.144,-0.2678 0.382,0.4187 0.763,0.6902 1.145,0.2667 0.381,-0.4235 0.763,-0.6941 1.144,-0.2657 0.382,0.4284 0.763,0.6983 1.145,0.2647 0.381,-0.4335 0.763,-0.7025 1.144,-0.2637 0.382,0.4388 0.763,0.707 1.145,0.2627 0.381,-0.4443 0.763,-0.7116 1.144,-0.2617 0.382,0.4499 0.763,0.7165 1.145,0.2607 0.381,-0.4557 0.763,-0.7215 1.144,-0.2597 0.382,0.4617 0.763,0.7268 1.145,0.2588 0.381,-0.468 0.763,-0.7324 1.144,-0.2579 0.382,0.4745 0.763,0.7381 1.145,0.257 0.381,-0.4812 0.763,-0.7442 1.144,-0.2561 0.382,0.4881 0.763,0.7504 1.145,0.2551 0.381,-0.4952 0.763,-0.7569 1.144,-0.2542 0.382,0.5027 0.763,0.7638 1.145,0.2533 0.381,-0.5104 0.763,-0.7709 1.144,-0.2524 0.382,0.5185 0.763,0.7784 1.145,0.2516 0.381,-0.5269 0.763,-0.7862 1.144,-0.2507 0.382,0.5355 0.763,0.7943 1.145,0.2498 0.381,-0.5445 0.763,-0.8028 1.144,-0.2489 0.382,0.5538 0.763,0.8116 1.145,0.248 0.381,-0.5636 0.763,-0.821 1.144,-0.2472 0.382,0.5739 0.763,0.8308 1.145,0.2463 0.381,-0.5844 0.763,-0.8409 1.144,-0.2454 0.382,0.5955 0.763,0.8516 1.145,0.2446 0.381,-0.6071 0.763,-0.8628 1.144,-0.2437 0.382,0.6191 0.763,0.8745 1.145,0.2428 0.381,-0.6318 0.763,-0.8869 1.144,-0.2419 0.382,0.645 0.763,0.8998 1.145,0.241 0.381,-0.6589 0.763,-0.9134 1.144,-0.2401 0.382,0.6734 0.763,0.9277 1.145,0.2391 0.381,-0.6886 0.763,-0.9428 1.144,-0.2381 0.382,0.7046 0.763,0.9587 1.145,0.2371 0.381,-0.7215 0.763,-0.9754 1.144,-0.2361 0.382,0.7393 0.763,0.9932 1.145,0.2351 0.381,-0.7581 0.763,-1.0119 1.144,-0.234 0.382,0.7779 0.763,1.0317 1.145,0.2329 0.381,-0.7989 0.763,-1.0528 1.144,-0.2318 0.382,0.8211 0.763,1.0752 1.145,0.2306 0.381,-0.8446 0.763,-1.0989 1.144,-0.2293 0.382,0.8697 0.763,1.1242 1.144,0.2279 0.382,-0.8963 0.763,-1.1512 1.145,-0.2264 0.381,0.9247 0.763,1.18 1.144,0.2249 0.382,-0.9552 0.763,-1.211 1.145,-0.2233 0.381,0.9877 0.763,1.2442 1.144,0.2215 0.382,-1.0227 0.763,-1.2799 1.145,-0.2195 0.381,1.0603 0.763,1.3183 1.144,0.2174 0.382,-1.101 0.763,-1.3601 1.145,-0.2151 0.381,1.145 0.763,1.4052 1.144,0.2125 0.382,-1.1928 0.763,-1.4545 1.145,-0.2096 0.381,1.2448 0.763,1.5081 1.144,0.2064 0.382,-1.3018 0.763,-1.5671 1.145,-0.2028 0.381,1.3644 0.763,1.632 1.144,0.1986 0.382,-1.4334 0.763,-1.7037 1.145,-0.1938 0.381,1.5099 0.763,1.7835 1.144,0.1882 0.382,-1.5952 0.763,-1.8727 1.145,-0.1817 0.381,1.691 0.763,1.9732 1.144,0.174 0.382,-1.7992 0.763,-2.087 1.145,-0.1647 0.381,1.9223 0.763,2.2172 1.144,0.1534 0.382,-2.0637 0.763,-2.3673 1.145,-0.1394 0.381,2.2279 0.763,2.5426 1.144,0.1219 0.382,-2.4207 0.763,-2.7497 1.145,-0.1 0.381,2.6503 0.763,2.9982 1.144,0.07 0.382,-2.9282 0.763,-3.3018 1.145,-0.03 0.381,3.2718 0.763,3.6814 1.144,-0.026 0.382,-3.7071 0.763,-4.1694 1.145,0.107 0.381,4.2765 0.763,4.8206 1.144,-0.2324 0.382,-5.053 0.763,-5.7339 1.145,0.441 0.381,6.1749 0.763,7.1114 1.144,-0.8268 0.382,-7.9381 0.763,-9.4437 1.145,1.6686 0.381,11.1124 0.763,14.3784 1.144,-4.141 0.382,-18.5194 0.763,-35.992 1.145,19.5654 0.381,55.5571 0.763,173.1451 1.144,228.6991 0.382,55.554 0.763,38.078 1.145,19.559 0.381,-18.519 0.763,-15.251 1.144,-4.139 0.382,11.113 0.763,9.605 1.145,1.667 0.381,-7.938 0.763,-7 1.144,-0.825 0.382,6.175 0.763,5.493 1.145,0.44 0.381,-5.053 0.763,-4.508 1.144,-0.232 0.382,4.277 0.763,3.814 1.145,0.107 0.381,-3.708 0.763,-3.297 1.144,-0.03 0.382,3.272 0.763,2.898 1.145,-0.03 0.381,-2.928 0.763,-2.58 1.144,0.07 0.382,2.651 0.763,2.321 1.145,-0.1 0.381,-2.42 0.763,-2.105 1.144,0.123 0.382,2.228 0.763,1.924 1.145,-0.14 0.381,-2.064 0.763,-1.769 1.144,0.154 0.382,1.922 0.763,1.634 1.145,-0.165 0.381,-1.8 0.763,-1.517 1.144,0.174 0.382,1.691 0.763,1.413 1.145,-0.182 0.381,-1.595 0.763,-1.321 1.144,0.188 0.382,1.51 0.763,1.24 1.145,-0.194 0.381,-1.433 0.763,-1.165 1.144,0.199 0.382,1.365 0.763,1.099 1.145,-0.203 0.381,-1.302 0.763,-1.038 1.144,0.207 0.382,1.245 0.763,0.983 1.145,-0.21 0.381,-1.193 0.763,-0.932 1.144,0.213 0.382,1.145 0.763,0.885 1.145,-0.216 0.381,-1.101 0.763,-0.842 1.144,0.218 0.382,1.06 0.763,0.803 1.145,-0.22 0.381,-1.022 0.763,-0.766 1.144,0.222 0.382,0.988 0.763,0.732 1.145,-0.223 0.381,-0.956 0.763,-0.7 1.144,0.225 0.382,0.924 0.763,0.669 1.145,-0.227 0.381,-0.896 0.762,-0.642 1.144,0.228 0.381,0.87 0.763,0.615 1.144,-0.229 0.382,-0.845 0.763,-0.591 1.145,0.23 0.381,0.821 0.763,0.567 1.144,-0.232 0.382,-0.798 0.763,-0.544 1.145,0.233 0.381,0.778 0.763,0.524 1.144,-0.234 0.382,-0.758 0.763,-0.504 1.145,0.236 0.381,0.739 0.763,0.485 1.144,-0.237 0.382,-0.721 0.763,-0.467 1.145,0.238 0.381,0.704 0.763,0.45 1.144,-0.239 0.382,-0.688 0.763,-0.434 1.145,0.24 0.381,0.673 0.763,0.418 1.144,-0.241 0.382,-0.658 0.763,-0.404 1.145,0.241 0.381,0.645 0.763,0.39 1.144,-0.242 0.382,-0.631 0.763,-0.376 1.145,0.243 0.381,0.619 0.763,0.364 1.144,-0.243 0.382,-0.607 0.763,-0.351 1.145,0.244 0.381,0.596 0.763,0.339 1.144,-0.245 0.382,-0.585 0.763,-0.328 1.145,0.246 0.381,0.574 0.763,0.316 1.144,-0.247 0.382,-0.564 0.763,-0.306 1.145,0.248 0.381,0.554 0.763,0.295 1.144,-0.249 0.382,-0.545 0.763,-0.286 1.145,0.25 0.381,0.535 0.763,0.276 1.144,-0.251 0.382,-0.527 0.763,-0.267 1.145,0.252 0.381,0.518 0.763,0.258 1.144,-0.253 0.382,-0.51 0.763,-0.249 1.145,0.254 0.381,0.502 0.763,0.241 1.144,-0.255 0.382,-0.495 0.763,-0.233 1.145,0.256 0.381,0.488 0.763,0.225 1.144,-0.257 0.382,-0.481 0.763,-0.217 1.145,0.257 0.381,0.475 0.763,0.21 1.144,-0.258 0.382,-0.468 0.763,-0.202 1.145,0.259 0.381,0.462 0.763,0.196 1.144,-0.259 0.382,-0.456 0.763,-0.19 1.145,0.26 0.381,0.45 0.763,0.183 1.144,-0.261 0.382,-0.445 0.763,-0.176 1.145,0.262 0.381,0.439 0.763,0.17 1.144,-0.263 0.382,-0.434 0.763,-0.164 1.145,0.264 0.381,0.429 0.763,0.158 1.144,-0.265 0.382,-0.424 0.763,-0.152 1.145,0.266 0.381,0.419 0.763,0.147 1.144,-0.268 0.382,-0.414 0.763,-0.14 1.145,0.269 0.381,0.41 0.763,0.136 1.144,-0.27 0.382,-0.405 0.763,-0.129 1.145,0.272 0.381,0.401 0.763,0.124 1.144,-0.273 0.382,-0.397 0.763,-0.119 1.145,0.274 0.381,0.393 0.763,0.114 1.144,-0.275 0.382,-0.389 0.763,-0.109 1.145,0.276 0.381,0.385 0.763,0.105 1.144,-0.277 0.382,-0.382 0.763,-0.1 1.145,0.278 0.381,0.378 0.763,0.1 1.144,-0.279 0.382,-0.375 0.763,-0.09 1.145,0.28 0.381,0.372 0.763,0.09 1.144,-0.282 0.382,-0.368 0.763,-0.08 1.145,0.284 0.381,0.365 0.763,0.08 1.144,-0.285 0.382,-0.362 0.763,-0.07 1.145,0.286 0.381,0.359 0.763,0.07 1.144,-0.287 0.382,-0.356 0.763,-0.06 1.145,0.288 0.381,0.354 0.763,0.06 1.144,-0.29 0.382,-0.35 0.763,-0.06 1.145,0.292 0.381,0.348 0.763,0.05 1.144,-0.293 0.382,-0.346 0.763,-0.05 1.145,0.294 0.381,0.343 0.763,0.04 1.144,-0.296 0.381,-0.34 0.763,-0.04 1.144,0.298 0.382,0.338 0.763,0.04 1.145,-0.299 0.381,-0.336 0.763,-0.03 1.144,0.3 0.382,0.334 0.763,0.03 1.145,-0.302 0.381,-0.332 0.763,-0.03 1.144,0.304 0.382,0.33 0.763,0.02 1.145,-0.305 0.381,-0.328 0.763,-0.02 1.144,0.307 0.382,0.325 0.763,0.02 1.145,-0.309 0.381,-0.324 0.763,-0.01 1.144,0.31 0.382,0.322 0.763,0 1.145,-0.312 0.381,-0.32 0.763,-0 1.144,0.314 0.382,0.319 0.763,10e-4 1.145,-0.316 0.381,-0.317 0.763,0 1.144,0.318 0.382,0.315 0.763,-0 1.145,-0.32 0.381,-0.313 0.763,0.01 1.144,0.322 0.382,0.312 0.763,-0.01 1.145,-0.324 0.381,-0.31 0.763,0.02 1.144,0.326 0.382,0.309 0.763,-0.02 1.145,-0.328 0.381,-0.308 0.763,0.02 1.144,0.33 0.382,0.307 0.763,-0.03 1.145,-0.332 0.381,-0.305 0.763,0.03 1.144,0.334 0.382,0.305 0.763,-0.03 1.145,-0.336 0.381,-0.303 0.763,0.04 1.144,0.338 0.382,0.302 0.763,-0.04 1.145,-0.34 0.381,-0.301 0.763,0.04 1.144,0.343 0.382,0.3 0.763,-0.05 1.145,-0.346 0.381,-0.299 0.763,0.05 1.144,0.348 0.382,0.298 0.763,-0.05 1.145,-0.35 0.381,-0.297 0.763,0.06 1.144,0.353 0.382,0.296 0.763,-0.06 1.145,-0.356 0.381,-0.295 0.763,0.06 1.144,0.358 0.382,0.295 0.763,-0.07 1.145,-0.36 0.381,-0.294 0.763,0.07 1.144,0.363 0.382,0.293 0.763,-0.07 1.145,-0.366 0.381,-0.292 0.763,0.08 1.144,0.369 0.382,0.292 0.763,-0.08 1.145,-0.372 0.381,-0.291 0.763,0.08 1.144,0.375 0.382,0.29 0.763,-0.09 1.145,-0.378 0.381,-0.29 0.763,0.09 1.144,0.381 0.382,0.289 0.763,-0.1 1.145,-0.384 0.381,-0.289 0.763,0.1 1.144,0.387 0.382,0.289 0.763,-0.102 1.145,-0.39 0.381,-0.289 0.763,0.105 1.144,0.393 0.382,0.288 0.763,-0.109 1.145,-0.396 0.381,-0.288 0.763,0.112 1.144,0.4 0.382,0.287 0.763,-0.116 1.145,-0.404 0.381,-0.288 0.763,0.12 1.144,0.407 0.382,0.288 0.763,-0.123 1.145,-0.411 0.381,-0.287 0.763,0.128 1.144,0.415 0.382,0.287 0.763,-0.131 1.145,-0.418 0.381,-0.288 0.763,0.135 1.144,0.422 0.382,0.287 0.763,-0.139 1.145,-0.426 0.381,-0.288 0.763,0.143 1.144,0.43 0.382,0.287 0.763,-0.147 1.145,-0.435 0.381,-0.287 0.763,0.152 1.144,0.439 0.382,0.288 0.763,-0.155 1.145,-0.443 0.381,-0.288 0.763,0.16 1.144,0.448 0.382,0.287 0.763,-0.164 1.145,-0.452 0.381,-0.289 0.763,0.168 1.144,0.456 0.382,0.289 0.763,-0.172 1.145,-0.461 0.381,-0.289 0.763,0.177 1.144,0.466 0.382,0.289 0.763,-0.182 1.145,-0.471 0.381,-0.29 0.763,0.186 1.144,0.476 0.382,0.29 0.763,-0.191 1.144,-0.481 0.382,-0.291 0.763,0.195 1.145,0.487 0.381,0.291 0.763,-0.201 1.144,-0.493 0.382,-0.292 0.763,0.206 1.145,0.498 0.381,0.293 0.763,-0.21 1.144,-0.504 0.382,-0.293 0.763,0.216 1.145,0.51 0.381,0.294 0.763,-0.221 1.144,-0.516 0.382,-0.295 0.763,0.226 1.145,0.522 0.381,0.296 0.763,-0.231 1.144,-0.528 0.382,-0.297 0.763,0.237 1.145,0.535 0.381,0.298 0.763,-0.243 1.144,-0.542 0.382,-0.299 0.763,0.249 1.145,0.549 0.381,0.3 0.763,-0.255 1.144,-0.556 0.382,-0.301 0.763,0.261 1.145,0.563 0.381,0.303 0.763,-0.267 1.144,-0.571 0.382,-0.303 0.763,0.274 1.145,0.579 0.381,0.305 0.763,-0.28 1.144,-0.587 0.382,-0.306 0.763,0.287 1.145,0.595 0.381,0.308 0.763,-0.293 1.144,-0.603 0.382,-0.31 0.763,0.3 1.145,0.612 0.381,0.311 0.763,-0.308 1.144,-0.621 0.382,-0.313 0.763,0.315 1.145,0.63 0.381,0.315 0.763,-0.323 1.144,-0.639 0.382,-0.317 0.763,0.33 1.145,0.649 0.381,0.318 0.763,-0.339 1.144,-0.659 0.382,-0.321 0.763,0.346 1.145,0.669 0.381,0.323 0.763,-0.355 1.144,-0.68 0.382,-0.325 0.763,0.364 1.145,0.691 0.381,0.328 0.763,-0.373 1.144,-0.703 0.382,-0.33 0.763,0.382 1.145,0.715 0.381,0.333 0.763,-0.392 1.144,-0.727 0.382,-0.335 0.763,0.402 1.145,0.74 0.381,0.338 0.763,-0.412 1.144,-0.753 0.382,-0.341 0.763,0.422 1.145,0.766 0.381,0.345 0.763,-0.433 1.144,-0.78 0.382,-0.348 0.763,0.444 1.145,0.795 0.381,0.351 0.763,-0.456 1.144,-0.81 0.382,-0.355 0.763,0.468 1.145,0.826 0.381,0.358 0.763,-0.481 1.144,-0.843 0.382,-0.361 0.763,0.494 1.145,0.86 0.381,0.366 0.763,-0.508 1.144,-0.878 0.382,-0.369 0.763,0.522 1.145,0.896 0.381,0.375 0.763,-0.536 1.144,-0.915 0.382,-0.379 0.763,0.552 1.145,0.936 0.381,0.383 0.763,-0.568 1.144,-0.957 0.382,-0.389 0.763,0.585 1.145,0.979 0.381,0.394 0.763,-0.602 1.144,-1.002 0.382,-0.4 0.763,0.62 1.145,1.026 0.381,0.405 0.763,-0.64 1.144,-1.051 0.382,-0.412 0.763,0.659 1.145,1.077 0.381,0.418 0.763,-0.68 1.144,-1.105 0.382,-0.425 0.763,0.702 1.145,1.134 0.381,0.433 0.763,-0.725 1.144,-1.165 0.382,-0.44 0.763,0.75 1.145,1.198 0.381,0.448 0.763,-0.776 1.144,-1.232 0.382,-0.457 0.763,0.803 1.145,1.268 0.381,0.466 0.763,-0.831 1.144,-1.307 0.382,-0.475 0.763,0.862 1.145,1.348 0.381,0.486 0.763,-0.894 1.144,-1.391 0.382,-0.496 0.763,0.929 1.145,1.437 0.381,0.508 0.763,-0.965 1.144,-1.486 0.382,-0.521 0.763,1.005 1.145,1.539 0.381,0.534 0.763,-1.047 1.144,-1.595 0.382,-0.549 0.763,1.091 1.144,1.655 0.382,0.564 0.763,-1.14 1.145,-1.72 0.381,-0.581 0.763,1.192 1.144,1.79 0.382,0.598 0.763,-1.248 1.145,-1.866 0.381,-0.618 0.763,1.309 1.144,1.948 0.382,0.64 0.763,-1.376 1.145,-2.038 0.381,-0.662 0.763,1.449 1.144,2.137 0.382,0.687 0.763,-1.529 1.145,-2.245 0.381,-0.716 0.763,1.617 1.144,2.364 0.382,0.746 0.763,-1.715 1.145,-2.496 0.381,-0.781 0.763,1.823 1.144,2.643 0.382,0.819 0.763,-1.945 1.145,-2.808 0.381,-0.863 0.763,2.082 1.144,2.994 0.382,0.912 0.763,-2.238 1.145,-3.206 0.381,-0.968 0.763,2.418 1.144,3.45 0.382,1.033 0.763,-2.626 1.145,-3.733 0.381,-1.108 0.763,2.869 1.144,4.066 0.382,1.196 0.763,-3.16 1.145,-4.462 0.381,-1.303 0.763,3.509 1.144,4.942 0.382,1.432 0.763,-3.941 1.145,-5.536 0.381,-1.594 0.763,4.486 1.144,6.288 0.382,1.801 0.763,-5.196 1.145,-7.272 0.381,-2.075 0.763,6.159 1.144,8.615 0.382,2.457 0.763,-7.538 1.145,-10.56 0.381,-3.022 0.763,9.679 1.144,13.626 0.382,3.948 0.763,-13.443 1.145,-19.18 0.381,-5.736 0.763,21.735 1.144,32.392 0.382,10.657 0.763,-30.366 1.145,-114.846 0.381,-84.479 0.763,-174.5583 1.144,-188.5048 0.382,-13.9464 0.763,25.5925 1.145,31.9691 0.381,6.3766 0.763,-15.1008 1.144,-19.2066 0.382,-4.1057 0.763,10.7338 1.145,13.7463 0.381,3.0125 0.763,-8.3466 1.144,-10.716 0.382,-2.3694 0.763,6.8425 1.145,8.7885 0.381,1.946 0.763,-5.8083 1.144,-7.4545 0.382,-1.6461 0.763,5.0538 1.145,6.4764 0.381,1.4226 0.763,-4.4789 1.144,-5.7285 0.382,-1.2496 0.763,4.0265 1.145,5.1383 0.381,1.1117 0.763,-3.6614 1.144,-4.6606 0.382,-0.9993 0.763,3.3603 1.145,4.2661 0.381,0.9058 0.763,-3.108 1.144,-3.9349 0.382,-0.8269 0.763,2.8934 1.145,3.6528 0.381,0.7594 0.763,-2.7088 1.144,-3.4097 0.382,-0.701 0.763,2.5482 1.145,3.1981 0.381,0.6499 0.763,-2.4073 1.144,-3.0123 0.382,-0.6049 0.763,2.2828 1.145,2.8478 0.381,0.565 0.763,-2.1718 1.144,-2.7012 0.382,-0.5293 0.763,2.0724 1.145,2.5697 0.381,0.4973 0.763,-1.9828 1.144,-2.4511 0.382,-0.4682 0.763,1.9017 1.145,2.3436 0.381,0.442 0.763,-1.8278 1.144,-2.2457 0.382,-0.4179 0.763,1.7604 1.145,2.1563 0.381,0.3959 0.763,-1.6987 1.144,-2.0743 0.382,-0.3756 0.763,1.6418 1.145,1.9988 0.381,0.3569 0.763,-1.5894 1.144,-1.929 0.382,-0.3397 0.763,1.5408 1.145,1.8644 0.381,0.3236 0.763,-1.4958 1.144,-1.8044 0.382,-0.3087 0.763,1.4538 1.145,1.7485 0.381,0.2947 0.763,-1.4147 1.144,-1.6964 0.382,-0.2817 0.763,1.3782 1.145,1.6476 0.381,0.2695 0.763,-1.3439 1.144,-1.6019 0.382,-0.258 0.763,1.3119 1.145,1.559 0.381,0.2472 0.763,-1.2817 1.144,-1.5186 0.382,-0.237 0.763,1.2533 1.145,1.4806 0.381,0.2274 0.762,-1.2265 1.144,-1.4448 0.381,-0.2182 0.763,1.2013 1.144,1.4109 0.382,0.2096 0.763,-1.1774 1.145,-1.3788 0.381,-0.2014 0.763,1.1548 1.144,1.3484 0.382,0.1937 0.763,-1.1333 1.145,-1.3196 0.381,-0.1862 0.763,1.1131 1.144,1.2922 0.382,0.1792 0.763,-1.0937 1.145,-1.2661 0.381,-0.1724 0.763,1.0754 1.144,1.2413 0.382,0.166 0.763,-1.0579 1.145,-1.2177 0.381,-0.1598 0.763,1.0413 1.144,1.1952 0.382,0.154 0.763,-1.0254 1.145,-1.1737 0.381,-0.1483 0.763,1.0103 1.144,1.1532 0.382,0.1429 0.763,-0.9959 1.145,-1.1336 0.381,-0.1376 0.763,0.9822 1.144,1.1148 0.382,0.1327 0.763,-0.969 1.145,-1.0968 0.381,-0.1278 0.763,0.9564 1.144,1.0796 0.382,0.1232 0.763,-0.9443 1.145,-1.0631 0.381,-0.1187 0.763,0.9328 1.144,1.0472 0.382,0.1144 0.763,-0.9217 1.145,-1.0319 0.381,-0.1103 0.763,0.9111 1.144,1.0173 0.382,0.1062 0.763,-0.901 1.145,-1.0033 0.381,-0.1023 0.763,0.8913 1.144,0.9898 0.382,0.099 0.763,-0.8819 1.145,-0.9768 0.381,-0.095 0.763,0.8729 1.144,0.9643 0.382,0.091 0.763,-0.8643 1.145,-0.9523 0.381,-0.088 0.763,0.8561 1.144,0.9407 0.382,0.085 0.763,-0.8481 1.145,-0.9295 0.381,-0.081 0.763,0.8405 1.144,0.9187 0.382,0.078 0.763,-0.8332 1.145,-0.9083 0.381,-0.075 0.763,0.8261 1.144,0.8983 0.382,0.072 0.763,-0.8194 1.145,-0.8886 0.381,-0.069 0.763,0.8128 1.144,0.8793 0.382,0.066 0.763,-0.8067 1.145,-0.8703 0.381,-0.064 0.763,0.8006 1.144,0.8616 0.382,0.061 0.763,-0.7949 1.145,-0.8532 0.381,-0.058 0.763,0.7893 1.144,0.8451 0.382,0.056 0.763,-0.784 1.145,-0.8373 0.381,-0.053 0.763,0.7789 1.144,0.8297 0.382,0.051 0.763,-0.774 1.145,-0.8224 0.381,-0.048 0.763,0.7693 1.144,0.8154 0.382,0.046 0.763,-0.7648 1.145,-0.8086 0.381,-0.044 0.763,0.7604 1.144,0.802 0.382,0.041 0.763,-0.7563 1.145,-0.7956 0.381,-0.039 0.763,0.7523 1.144,0.7894 0.382,0.037 0.763,-0.7484 1.145,-0.7835 0.381,-0.035 0.763,0.7448 1.144,0.7777 0.382,0.033 0.763,-0.7412 1.145,-0.7721 0.381,-0.031 0.763,0.7379 1.144,0.7668 0.382,0.029 0.763,-0.7348 1.145,-0.7616 0.381,-0.027 0.763,0.7317 1.144,0.7566 0.382,0.025 0.763,-0.7288 1.145,-0.7518 0.381,-0.023 0.763,0.726 1.144,0.7471 0.382,0.021 0.763,-0.7234 1.145,-0.7425 0.381,-0.019 0.763,0.7208 1.144,0.7381 0.382,0.017 0.763,-0.7184 1.145,-0.7339 0.381,-0.015 0.763,0.7162 1.144,0.7299 0.382,0.014 0.763,-0.7141 1.145,-0.726 0.381,-0.012 0.763,0.712 1.144,0.7222 0.382,0.01 0.763,-0.7102 1.145,-0.7186 0.381,-0.01 0.763,0.7084 1.144,0.7151 0.382,0.01 0.763,-0.7067 1.145,-0.7117 0.381,-0 0.763,0.7052 1.144,0.7085 0.382,0 0.763,-0.7038 1.145,-0.7054 0.381,-0 0.763,0.7024 1.144,0.7024" fill='none' stroke='#000' stroke-linejoin='round'/>
</svg>
