<?xml version="1.0" encoding="UTF-8" standalone="no"?>
<svg xmlns="http://www.w3.org/2000/svg" width="800" height="400">
<path d="m 0,332.566 c 1.34003,-0 2.68007,-1.806 4.0201,-2.765 1.34003,-0.959 2.68007,-0.387 4.0201,0.878 1.34003,1.265 2.6801,2.328 4.0201,1.621 1.34,-0.707 2.6801,-2.691 4.0201,-3.036 1.34,-0.344 2.6801,1.21 4.0201,2.387 1.34,1.176 2.6801,1.133 4.0201,-0.08 1.34,-1.215 2.6801,-2.749 4.0201,-2.334 1.34,0.414 2.6801,2.507 4.0201,3.205 1.34,0.698 2.6801,-0.519 4.0201,-1.884 1.34,-1.365 2.6801,-1.906 4.0201,-0.796 1.34,1.109 2.6801,3.105 4.0201,3.038 1.34,-0.07 2.6801,-2.193 4.0201,-3.269 1.34,-1.076 2.6801,-0.306 4.0201,1.223 1.34,1.53 2.6801,2.742 4.0201,1.806 1.34,-0.935 2.6801,-3.405 4.0201,-3.767 1.34,-0.362 2.6801,1.708 4.0201,3.212 1.34,1.504 2.6801,1.34 4.0201,-0.333 1.34,-1.674 2.6801,-3.705 4.0201,-3.042 1.34,0.663 2.6801,3.649 4.0201,4.578 1.34,0.929 2.6801,-0.962 4.0201,-2.995 1.34,-2.033 2.6801,-2.743 4.0201,-0.941 1.34,1.802 2.6801,4.941 4.0201,4.719 1.34,-0.223 2.6801,-3.841 4.0201,-5.609 1.34,-1.768 2.6801,-0.277 4.0201,2.517 1.34,2.795 2.6801,4.945 4.0206,3.017 1.34,-1.928 2.68,-6.854 4.02,-7.45 1.34,-0.595 2.68,3.978 4.02,7.291 1.34,3.314 2.68,2.788 4.02,-1.464 1.34,-4.252 2.68,-9.548 4.02,-7.446 1.34,2.103 2.68,11.16 4.02,13.942 1.34,2.781 2.68,-3.981 4.02,-12.087 1.34,-8.105 2.68,-11.886 4.02,-1.795 1.34,10.091 2.68,32.143 4.02,29.165 1.34,-2.979 2.68,-38.147 4.02,-96.504 1.34,-58.356 2.68,-131.907 4.021,-172.2196 1.34,-40.3127 2.68,-44.7843 4.02,-33.8677 1.34,10.9167 2.68,28.9535 4.02,30.2696 1.34,1.3162 2.68,-10.8636 4.02,-17.1464 1.34,-6.2828 2.68,-3.9127 4.02,1.8538 1.34,5.7664 2.68,10.7712 4.02,8.5936 1.34,-2.1776 2.68,-9.2534 4.02,-10.8798 1.34,-1.6264 2.68,2.7155 4.02,6.2137 1.34,3.4982 2.68,3.8838 4.02,1.0514 1.34,-2.8324 2.68,-6.7183 4.02,-6.1637 1.34,0.5547 2.68,4.866 4.021,6.5337 1.34,1.6676 2.68,-0.2851 4.02,-2.7752 1.34,-2.49 2.68,-3.7782 4.02,-2.161 1.34,1.6171 2.68,4.8798 4.02,5.0532 1.34,0.1735 2.68,-2.7218 4.02,-4.3614 1.34,-1.6397 2.68,-0.9394 4.02,0.9489 1.34,1.8882 2.68,3.6085 4.02,2.7208 1.34,-0.8878 2.68,-3.6767 4.02,-4.2763 1.34,-0.5996 2.68,1.3401 4.02,2.9106 1.34,1.5706 2.68,1.6856 4.02,0.2492 1.34,-1.4365 2.68,-3.3799 4.021,-3.0142 1.34,0.3658 2.68,2.7311 4.02,3.6093 1.34,0.8782 2.68,-0.3155 4.02,-1.7836 1.34,-1.4681 2.68,-2.1747 4.02,-1.1232 1.34,1.0515 2.68,3.0926 4.02,3.1386 1.34,0.046 2.68,-1.9061 4.02,-2.9725 1.34,-1.0663 2.68,-0.5071 4.02,0.8273 1.34,1.3345 2.68,2.4947 4.02,1.7966 1.34,-0.698 2.68,-2.7444 4.02,-3.1344 1.34,-0.39 2.68,1.1394 4.02,2.3286 1.34,1.1891 2.68,1.1992 4.021,0.03 1.34,-1.1692 2.68,-2.6852 4.02,-2.3275 1.34,0.3577 2.68,2.331 4.02,3.0186 1.34,0.6875 2.68,-0.3966 4.02,-1.6548 1.34,-1.2582 2.68,-1.7979 4.02,-0.8281 1.34,0.9698 2.68,2.764 4.02,2.7453 1.34,-0.019 2.68,-1.8438 4.02,-2.7945 1.34,-0.9508 2.68,-0.3464 4.02,0.9315 1.34,1.2779 2.68,2.3246 4.02,1.5932 1.34,-0.7314 2.68,-2.7355 4.02,-3.0647 1.34,-0.3291 2.681,1.2687 4.021,2.4559 1.34,1.1872 2.68,1.1118 4.02,-0.136 1.34,-1.2477 2.68,-2.7932 4.02,-2.3483 1.34,0.4449 2.68,2.5936 4.02,3.2912 1.34,0.6975 2.68,-0.5808 4.02,-1.9835 1.34,-1.4027 2.68,-1.9281 4.02,-0.7665 1.34,1.1617 2.68,3.2146 4.02,3.1212 1.34,-0.093 2.68,-2.3178 4.02,-3.4224 1.34,-1.1046 2.68,-0.2667 4.02,1.3368 1.34,1.6035 2.68,2.842 4.02,1.8374 1.34,-1.0046 2.681,-3.6003 4.021,-3.9564 1.34,-0.3561 2.68,1.8616 4.02,3.4458 1.34,1.5842 2.68,1.368 4.02,-0.4308 1.34,-1.7987 2.68,-3.9457 4.02,-3.203 1.34,0.7426 2.68,3.9684 4.02,4.9447 1.34,0.9763 2.68,-1.1167 4.02,-3.3283 1.34,-2.2116 2.68,-2.942 4.02,-0.934 1.34,2.008 2.68,5.459 4.02,5.1697 1.34,-0.2893 2.68,-4.3599 4.02,-6.3191 1.34,-1.9591 2.68,-0.2145 4.02,2.9829 1.34,3.1975 2.681,5.626 4.021,3.3373 1.34,-2.2886 2.68,-8.0696 4.02,-8.7149 1.34,-0.6453 2.68,4.9035 4.02,8.9222 1.34,4.0187 2.68,3.3199 4.02,-2.1185 1.34,-5.4384 2.68,-12.3437 4.02,-9.414 1.34,2.9297 2.68,15.573 4.02,19.5124 1.34,3.9393 2.68,-6.2098 4.02,-20.0046 1.34,-13.7949 2.68,-24.4139 4.02,0.8335 1.34,25.2475 2.68,88.2664 4.02,151.5924 1.34,63.326 2.68,117.309 4.02,133.979 1.34,16.671 2.681,-0.06 4.021,-13.51 1.34,-13.446 2.68,-18.346 4.02,-12.216 1.34,6.13 2.68,17.405 4.02,18.17 1.34,0.765 2.68,-7.717 4.02,-12.26 1.34,-4.543 2.68,-2.758 4.02,1.739 1.34,4.498 2.68,8.45 4.02,6.63 1.34,-1.82 2.68,-7.642 4.02,-8.948 1.34,-1.307 2.68,2.399 4.02,5.373 1.34,2.974 2.68,3.257 4.02,0.767 1.34,-2.489 2.68,-5.87 4.02,-5.339 1.34,0.531 2.681,4.379 4.021,5.842 1.34,1.463 2.68,-0.337 4.02,-2.589 1.34,-2.252 2.68,-3.382 4.02,-1.88 1.34,1.502 2.68,4.481 4.02,4.609 1.34,0.128 2.68,-2.569 4.02,-4.073 1.34,-1.504 2.68,-0.812 4.02,0.958 1.34,1.77 2.68,3.35 4.02,2.492 1.34,-0.858 2.68,-3.483 4.02,-4.025 1.34,-0.542 2.68,1.321 4.02,2.803 1.34,1.483 2.68,1.557 4.02,0.175 1.34,-1.382 2.681,-3.219 4.021,-2.845 1.34,0.373 2.68,2.651 4.02,3.477 1.34,0.826 2.68,-0.353 4.02,-1.769 1.34,-1.416 2.68,-2.069 4.02,-1.034 1.34,1.034 2.68,3.004 4.02,3.027 1.34,0.02 2.68,-1.893 4.02,-2.92 1.34,-1.028 2.68,-0.451 4.02,0.859 1.34,1.311 2.68,2.423 4.02,1.72 1.34,-0.704 2.68,-2.713 4.02,-3.078 1.34,-0.365 2.68,1.165 4.02,2.332 1.341,1.167 2.681,1.147 4.021,-0.02 1.34,-1.167 2.68,-2.653 4.02,-2.278 1.34,0.375 2.68,2.344 4.02,3.013 1.34,0.668 2.68,-0.439 4.02,-1.695 1.34,-1.255 2.68,-1.767 4.02,-0.781 1.34,0.986 2.68,2.775 4.02,2.736 1.34,-0.04 2.68,-1.89 4.02,-2.835 1.34,-0.946 2.68,-0.306 4.02,0.989 1.34,1.296 2.68,2.33 4.02,1.571 1.34,-0.76 2.68,-2.791 4.02,-3.106 1.341,-0.315 2.681,1.334 4.021,2.537 1.34,1.203 2.68,1.094 4.02,-0.193 1.34,-1.286 2.68,-2.85 4.02,-2.372 1.34,0.478 2.68,2.695 4.02,3.395 1.34,0.7 2.68,-0.649 4.02,-2.097 1.34,-1.448 2.68,-1.96 4.02,-0.737 1.34,1.222 2.68,3.344 4.02,3.222 1.34,-0.123 2.68,-2.463 4.02,-3.603 1.34,-1.14 2.68,-0.224 4.02,1.467 1.34,1.691 2.68,2.965 4.02,1.879 1.341,-1.086 2.681,-3.833 4.021,-4.183 1.34,-0.351 2.68,2.042 4.02,3.724 1.34,1.681 2.68,1.405 4.02,-0.545 1.34,-1.95 2.68,-4.241 4.02,-3.402 1.34,0.839 2.68,4.36 4.02,5.397 1.34,1.036 2.68,-1.307 4.02,-3.743 1.34,-2.436 2.68,-3.197 4.02,-0.927 1.34,2.27 2.68,6.126 4.02,5.751 1.34,-0.374 2.68,-5.04 4.02,-7.255 1.34,-2.216 2.68,-0.135 4.02,3.617 1.341,3.752 2.681,6.582 4.021,3.779 1.34,-2.803 2.68,-9.843 4.02,-10.565 1.34,-0.721 2.68,6.324 4.02,11.481 1.34,5.158 2.68,4.245 4.02,-3.309 1.34,-7.554 2.68,-17.685 4.02,-13.03 1.34,4.656 2.68,25.665 4.02,32.83 1.34,7.166 2.68,-7.999 4.02,-55.959 1.34,-47.959 2.68,-123.998 4.02,-177.024 1.34,-53.0257 2.68,-76.5885 4.02,-73.2924 1.34,3.2962 2.68,25.4897 4.02,32.64 1.341,7.1503 2.681,-0.6729 4.021,-8.7573 1.34,-8.0843 2.68,-11.5419 4.02,-7.2249 1.34,4.3171 2.68,12.5029 4.02,12.996 1.34,0.4931 2.68,-6.06 4.02,-9.6115 1.34,-3.5515 2.68,-2.0759 4.02,1.6268 1.34,3.7028 2.68,6.9536 4.02,5.372 1.34,-1.5816 2.68,-6.5408 4.02,-7.6216 1.34,-1.0807 2.68,2.1753 4.02,4.7668 1.34,2.5915 2.68,2.7911 4.02,0.5591 1.34,-2.2321 2.68,-5.2266 4.02,-4.7125 1.341,0.5141 2.681,4.0028 4.021,5.3048 1.34,1.302 2.68,-0.3801 4.02,-2.4429 1.34,-2.0627 2.68,-3.0617 4.02,-1.6521 1.34,1.4095 2.68,4.1567 4.02,4.2468 1.34,0.09 2.68,-2.4466 4.02,-3.838 1.34,-1.3914 2.68,-0.7042 4.02,0.9684 1.34,1.6726 2.68,3.1344 4.02,2.2994 1.34,-0.835 2.68,-3.3228 4.02,-3.8149 1.34,-0.4921 2.68,1.3087 4.02,2.7164 1.34,1.4077 2.68,1.4439 4.02,0.107 1.341,-1.3368 2.681,-3.082 4.021,-2.6998 1.34,0.3821 2.68,2.5864 4.02,3.3671 1.34,0.7808 2.68,-0.3897 4.02,-1.7616 1.34,-1.3718 2.68,-1.9763 4.02,-0.9542 1.34,1.0221 2.68,2.9315 4.02,2.933" fill='none' stroke='#000' stroke-width='1.5' stroke-linejoin='round'/>
</svg>
